<?xml version="1.0" standalone="no"?><!DOCTYPE svg PUBLIC "-//W3C//DTD SVG 1.1//EN" "http://www.w3.org/Graphics/SVG/1.1/DTD/svg11.dtd"><svg t="1552467457391" class="icon" style="" viewBox="0 0 1024 1024" version="1.1" xmlns="http://www.w3.org/2000/svg" p-id="3353" xmlns:xlink="http://www.w3.org/1999/xlink" width="128" height="128"><defs><style type="text/css"></style></defs><path d="M491.589769 612.437505l209.749246-183.551924V262.570984A134.442611 134.442611 0 0 1 741.872331 0.000427a134.399944 134.399944 0 0 1 40.533316 262.570557v184.74659a40.533316 40.533316 0 0 1-13.823994 30.463987l-236.458568 206.933247v72.44797a134.442611 134.442611 0 0 1-40.533316 262.570557 134.399944 134.399944 0 0 1-40.533317-262.570557v-72.44797l-236.501235-206.933247a40.533316 40.533316 0 0 1-13.823994-30.506654V262.570984A134.442611 134.442611 0 0 1 241.26454 0.000427a134.399944 134.399944 0 0 1 40.533316 262.570557v166.314597l209.791913 183.551924zM241.26454 187.733682a53.333311 53.333311 0 1 0 0-106.666622 53.333311 53.333311 0 0 0 0 106.666622z m500.607791 0a53.333311 53.333311 0 1 0 0-106.666622 53.333311 53.333311 0 0 0 0 106.666622zM491.589769 938.666702a53.333311 53.333311 0 1 0 0-106.666622 53.333311 53.333311 0 0 0 0 106.666622z" fill="#000000" p-id="3354"></path></svg>