<?xml version="1.0" standalone="no"?><!DOCTYPE svg PUBLIC "-//W3C//DTD SVG 1.1//EN" "http://www.w3.org/Graphics/SVG/1.1/DTD/svg11.dtd"><svg t="1552146853102" class="icon" style="" viewBox="0 0 1024 1024" version="1.1" xmlns="http://www.w3.org/2000/svg" p-id="9778" xmlns:xlink="http://www.w3.org/1999/xlink" width="128" height="128"><defs><style type="text/css"></style></defs><path d="M864 450.13333333c0-4.69333333-3.84-8.53333333-8.53333333-8.53333333h-64c-4.69333333 0-8.53333333 3.84-8.53333334 8.53333333 0 149.65333333-121.28 270.93333333-270.93333333 270.93333334S241.06666667 599.78666667 241.06666667 450.13333333c0-4.69333333-3.84-8.53333333-8.53333334-8.53333333h-64c-4.69333333 0-8.53333333 3.84-8.53333333 8.53333333 0 179.94666667 135.04 328.42666667 309.33333333 349.44V908.8H314.34666667c-14.61333333 0-26.34666667 15.25333333-26.34666667 34.13333333v38.4c0 4.69333333 2.98666667 8.53333333 6.61333333 8.53333334h434.77333334c3.62666667 0 6.61333333-3.84 6.61333333-8.53333334v-38.4c0-18.88-11.73333333-34.13333333-26.34666667-34.13333333H550.4V800.10666667c176.32-19.2 313.6-168.53333333 313.6-349.97333334z" fill="#333303" p-id="9779"></path><path d="M512 631.46666667c100.16 0 181.33333333-80.21333333 181.33333333-179.2V213.33333333c0-98.98666667-81.17333333-179.2-181.33333333-179.2s-181.33333333 80.21333333-181.33333333 179.2v238.93333334c0 98.98666667 81.17333333 179.2 181.33333333 179.2z m-100.26666667-418.13333334c0-53.97333333 44.69333333-98.13333333 100.26666667-98.13333333s100.26666667 44.16 100.26666667 98.13333333v238.93333334c0 53.97333333-44.69333333 98.13333333-100.26666667 98.13333333s-100.26666667-44.16-100.26666667-98.13333333V213.33333333z" fill="#333303" p-id="9780"></path></svg>