<?xml version="1.0" standalone="no"?><!DOCTYPE svg PUBLIC "-//W3C//DTD SVG 1.1//EN" "http://www.w3.org/Graphics/SVG/1.1/DTD/svg11.dtd"><svg t="1552146355672" class="icon" style="" viewBox="0 0 1024 1024" version="1.1" xmlns="http://www.w3.org/2000/svg" p-id="3463" xmlns:xlink="http://www.w3.org/1999/xlink" width="128" height="128"><defs><style type="text/css"></style></defs><path d="M862.90432 304.64l0 552.96c0 45.16864-36.75136 81.92-81.92 81.92l-373.76 0c-45.16864 0-81.92-36.75136-81.92-81.92L325.30432 498.05312c11.68384 1.9456 23.6032 3.20512 35.84 3.20512 8.67328 0 17.19296-0.64512 25.6-1.6384L386.74432 857.6c0 11.29472 9.18528 20.48 20.48 20.48l373.76 0c11.29472 0 20.48-9.18528 20.48-20.48l0-552.96c0-11.29472-9.18528-20.48-20.48-20.48L578.24256 284.16c0-21.36064-3.20512-41.94304-8.96-61.44l211.70176 0C826.15296 222.72 862.90432 259.47136 862.90432 304.64zM357.72416 474.30656c-106.53696 0-193.20832-86.67136-193.20832-193.20832S251.1872 87.88992 357.72416 87.88992s193.20832 86.67136 193.20832 193.20832S464.26112 474.30656 357.72416 474.30656zM357.72416 433.34656c83.94752 0 152.24832-68.29056 152.24832-152.24832s-68.29056-152.24832-152.24832-152.24832-152.24832 68.29056-152.24832 152.24832S273.77664 433.34656 357.72416 433.34656zM473.6 301.57824c11.30496 0 20.48-9.17504 20.48-20.48s-9.17504-20.48-20.48-20.48l-95.39584 0 0-80.39424c0-11.30496-9.17504-20.48-20.48-20.48s-20.48 9.17504-20.48 20.48l0 100.87424c0 11.30496 9.17504 20.48 20.48 20.48L473.6 301.57824zM709.96992 467.63008 488.11008 467.63008c-11.30496 0-20.48 9.17504-20.48 20.48s9.17504 20.48 20.48 20.48l221.87008 0c11.30496 0 20.48-9.17504 20.48-20.48S721.28512 467.63008 709.96992 467.63008zM710.33856 591.86176 488.46848 591.86176c-11.30496 0-20.48 9.17504-20.48 20.48s9.17504 20.48 20.48 20.48l221.87008 0c11.30496 0 20.48-9.17504 20.48-20.48S721.65376 591.86176 710.33856 591.86176zM710.33856 721.23392 488.46848 721.23392c-11.30496 0-20.48 9.17504-20.48 20.48s9.17504 20.48 20.48 20.48l221.87008 0c11.30496 0 20.48-9.17504 20.48-20.48S721.65376 721.23392 710.33856 721.23392z" p-id="3464"></path></svg>