<?xml version="1.0" standalone="no"?><!DOCTYPE svg PUBLIC "-//W3C//DTD SVG 1.1//EN" "http://www.w3.org/Graphics/SVG/1.1/DTD/svg11.dtd"><svg t="1552187816592" class="icon" style="" viewBox="0 0 1024 1024" version="1.1" xmlns="http://www.w3.org/2000/svg" p-id="6440" xmlns:xlink="http://www.w3.org/1999/xlink" width="128" height="128"><defs><style type="text/css"></style></defs><path d="M320 672h384v32H320zM320 736h384v32H320z" fill="" p-id="6441"></path><path d="M512 416m-32 0a32 32 0 1 0 64 0 32 32 0 1 0-64 0Z" fill="" p-id="6442"></path><path d="M224 160H129.6A33.696 33.696 0 0 0 96 193.6v636.8A33.6 33.6 0 0 0 129.6 864H224zM800 160h94.4a33.6 33.6 0 0 1 33.6 33.6v636.8a33.696 33.696 0 0 1-33.6 33.6H800z" fill="" p-id="6443"></path><path d="M734.4 96H289.6A33.712 33.712 0 0 0 256 129.6v764.8a33.712 33.712 0 0 0 33.6 33.6h444.8a33.712 33.712 0 0 0 33.6-33.6V129.6A33.712 33.712 0 0 0 734.4 96zM704 768H320v-32h384z m0-64H320v-32h384zM480 416a32 32 0 1 1 32 32 32 32 0 0 1-32-32z m224-160H320v-64h384z" fill="" p-id="6444"></path><path d="M320 192h384v64H320z" fill="" p-id="6445"></path></svg>