<?xml version="1.0" standalone="no"?><!DOCTYPE svg PUBLIC "-//W3C//DTD SVG 1.1//EN" "http://www.w3.org/Graphics/SVG/1.1/DTD/svg11.dtd"><svg t="1552146420049" class="icon" style="" viewBox="0 0 1024 1024" version="1.1" xmlns="http://www.w3.org/2000/svg" p-id="4091" xmlns:xlink="http://www.w3.org/1999/xlink" width="128" height="128"><defs><style type="text/css"></style></defs><path d="M706.133333 938.666667H360.533333c-17.066667 0-32-14.933333-32-32v-789.333334c0-17.066667 14.933333-32 32-32h345.6c17.066667 0 32 14.933333 32 32v789.333334c0 17.066667-14.933333 32-32 32zM360.533333 106.666667c-6.4 0-10.666667 4.266667-10.666666 10.666666v789.333334c0 6.4 4.266667 10.666667 10.666666 10.666666h345.6c6.4 0 10.666667-4.266667 10.666667-10.666666v-789.333334c0-6.4-4.266667-10.666667-10.666667-10.666666H360.533333zM928 938.666667h-91.733333c-6.4 0-10.666667-4.266667-10.666667-10.666667s4.266667-10.666667 10.666667-10.666667h91.733333c6.4 0 10.666667-4.266667 10.666667-10.666666V283.733333c0-6.4-4.266667-10.666667-10.666667-10.666666h-93.866667c-6.4 0-10.666667-4.266667-10.666666-10.666667s4.266667-10.666667 10.666666-10.666667h93.866667c17.066667 0 32 14.933333 32 32v622.933334c0 17.066667-14.933333 32-32 32zM230.4 938.666667H138.666667c-17.066667 0-32-14.933333-32-32V283.733333c0-17.066667 14.933333-32 32-32h91.733333c6.4 0 10.666667 4.266667 10.666667 10.666667s-4.266667 10.666667-10.666667 10.666667H138.666667c-6.4 0-10.666667 4.266667-10.666667 10.666666v622.933334c0 6.4 4.266667 10.666667 10.666667 10.666666h91.733333c6.4 0 10.666667 4.266667 10.666667 10.666667s-4.266667 10.666667-10.666667 10.666667z" fill="#108EE9" p-id="4092"></path><path d="M616.533333 273.066667h-166.4c-6.4 0-10.666667-4.266667-10.666666-10.666667s4.266667-10.666667 10.666666-10.666667h166.4c6.4 0 10.666667 4.266667 10.666667 10.666667s-4.266667 10.666667-10.666667 10.666667zM616.533333 358.4h-166.4c-6.4 0-10.666667-4.266667-10.666666-10.666667s4.266667-10.666667 10.666666-10.666666h166.4c6.4 0 10.666667 4.266667 10.666667 10.666666s-4.266667 10.666667-10.666667 10.666667zM533.333333 772.266667c-21.333333 0-38.4-17.066667-38.4-38.4s17.066667-38.4 38.4-38.4 38.4 17.066667 38.4 38.4-17.066667 38.4-38.4 38.4z m0-55.466667c-8.533333 0-17.066667 8.533333-17.066666 17.066667s8.533333 17.066667 17.066666 17.066666 17.066667-8.533333 17.066667-17.066666-8.533333-17.066667-17.066667-17.066667z" fill="#ED1E79" p-id="4093"></path></svg>