<?xml version="1.0" standalone="no"?><!DOCTYPE svg PUBLIC "-//W3C//DTD SVG 1.1//EN" "http://www.w3.org/Graphics/SVG/1.1/DTD/svg11.dtd"><svg t="1553401878482" class="icon" style="" viewBox="0 0 1024 1024" version="1.1" xmlns="http://www.w3.org/2000/svg" p-id="2478" xmlns:xlink="http://www.w3.org/1999/xlink" width="128" height="128"><defs><style type="text/css"></style></defs><path d="M756.16 754.816a107.776 107.776 0 0 1 9.6-47.488 146.752 146.752 0 0 0 9.92-34.432 539.968 539.968 0 0 1 29.696-114.112 124.544 124.544 0 0 0 22.656-79.744 55.744 55.744 0 0 1-1.728-21.952 34.24 34.24 0 0 0-1.088-15.488 10.112 10.112 0 0 1 0-11.136c2.56-3.328 0.832-6.976-8.768-18.048a74.624 74.624 0 0 1-11.072-14.4 94.976 94.976 0 0 1 11.072-4.992l9.92-4.48 2.816-38.016c1.984-20.608 2.816-37.568 2.816-37.568s-12.8 3.584-27.968 8.32-29.12 8.32-31.104 8.32a67.008 67.008 0 0 1-19.776-40.512 76.224 76.224 0 0 1-7.936-41.664 288 288 0 0 0-13.568-88 266.304 266.304 0 0 0-47.296-92.352 14.208 14.208 0 0 0-20.608 2.752c-3.712 6.976-3.392 7.808 9.92 38.016l10.112 23.36-17.536-13.568A256.896 256.896 0 0 0 567.552 64.832c-13.632-1.664-14.144-1.408-17.152 6.976a16.768 16.768 0 0 1-8.512 9.728c-3.712 1.088-5.12 4.16-5.12 11.904a54.464 54.464 0 0 0 29.12 37.76 191.296 191.296 0 0 1 26.56 27.2 167.68 167.68 0 0 1-24.064-14.4 60.224 60.224 0 0 0-34.24-14.72c-23.744 0-23.168 16.128 1.152 33.088a353.088 353.088 0 0 1 37.376 33.088l22.016 22.144-19.776 3.328a74.688 74.688 0 0 0-46.656 15.552c-5.952 10.816-2.24 13.888 30.528 24.448a189.952 189.952 0 0 1 38.4 16.128 115.2 115.2 0 0 0 41.088 23.488 29.12 29.12 0 0 1 18.112 11.136 22.4 22.4 0 0 0 9.664 9.472 26.368 26.368 0 0 1 11.328 18.304 46.208 46.208 0 0 1 3.136 17.216 274.688 274.688 0 0 1-25.6 8.64l-24.32 7.488 20.672 36.096c19.2 33.6 20.928 36.096 28.288 35.264 9.344-0.832 9.344-0.832 1.408 12.224l-6.4 10.304 6.4 11.648a27.008 27.008 0 0 1 4.544 18.048c-1.728 5.312-2.816 4.48-8.512-7.488a197.056 197.056 0 0 0-39.616-51.2 72.64 72.64 0 0 0-56.832-20.288L554.88 416.64l-13.248-12.8A135.232 135.232 0 0 0 512 383.616a87.104 87.104 0 0 0-51.776-8.064h-35.136l-26.88 13.888a248.256 248.256 0 0 0-92.48 88.832 108.8 108.8 0 0 1-14.976 21.952c0-1.408-1.408-7.808-2.56-14.144-2.24-11.392-2.24-11.648 6.4-12.8s8.768-1.664 14.72-25.6c3.392-13.888 7.104-27.776 8.192-30.848 1.728-5.568 0-6.4-23.744-12.224a32 32 0 0 1-25.6-10.816 112.896 112.896 0 0 1 12.16-38.848 24.768 24.768 0 0 0 5.376-9.984 28.928 28.928 0 0 1 13.824-12.8 81.28 81.28 0 0 0 41.536-51.2 216.704 216.704 0 0 1 39.296-57.6 192 192 0 0 0 20.672-23.872 30.08 30.08 0 0 0-15.872-17.088L496.32 105.088 483.904 90.624S325.248 199.04 324.352 199.04a75.328 75.328 0 0 1-7.616-18.304l-5.952-18.048 19.2-18.048c20.672-19.2 25.152-26.688 19.776-33.088C347.52 108.8 342.464 109.888 320.96 120.192a458.752 458.752 0 0 1-49.472 19.712c-21.76 6.4-23.744 6.4-28.544 2.496-11.968-10.56-19.584-4.16-49.024 40.576a71.36 71.36 0 0 1-12.8 16.128 106.688 106.688 0 0 1-16-24.512 297.6 297.6 0 0 0-19.2-30.528c-7.616-8.064-14.976-7.808-17.216 0.576a459.584 459.584 0 0 0 30.272 123.328c6.4 19.2 6.784 20.288 1.984 22.784s-5.12 3.648-2.304 11.072c2.24 6.4 4.544 7.808 8.192 6.4s6.784 1.92 13.248 16.384a33.728 33.728 0 0 1 3.648 34.176c-2.496 9.408-4.544 16.896-4.544 17.216a104.192 104.192 0 0 1-15.552-3.328c-25.6-6.4-24.064-8.64-27.712 32.512-1.984 20.288-3.392 38.848-3.392 41.344s3.712 5.312 12.8 6.4l12.8 1.664-1.984 16.64a23.808 23.808 0 0 0 2.56 21.632 546.24 546.24 0 0 1 7.104 143.872v39.168l10.752 3.328a23.232 23.232 0 0 1 20.352 17.728 24.064 24.064 0 0 0 12.16 14.144c6.4 4.48 31.424 22.208 54.848 39.424a259.328 259.328 0 0 1 39.552 31.04c55.936 38.4 175.424 106.176 175.424 106.176l-4.8 10.304a234.88 234.88 0 0 0-17.92 61.952l122.688-74.56z" fill="#EA7130" p-id="2479"></path></svg>