<?xml version="1.0" standalone="no"?><!DOCTYPE svg PUBLIC "-//W3C//DTD SVG 1.1//EN" "http://www.w3.org/Graphics/SVG/1.1/DTD/svg11.dtd"><svg t="1552147235814" class="icon" style="" viewBox="0 0 1024 1024" version="1.1" xmlns="http://www.w3.org/2000/svg" p-id="13884" xmlns:xlink="http://www.w3.org/1999/xlink" width="128" height="128"><defs><style type="text/css"></style></defs><path d="M938.666667 879.36l14.336 123.392a19.370667 19.370667 0 0 1-6.656 16.938667 15.488 15.488 0 0 1-17.066667 2.048l-105.301333-53.034667-106.496 53.632a15.530667 15.530667 0 0 1-16.256-1.408 16.64 16.64 0 0 1-6.570667-15.274667l14.72-126.293333-81.962667-93.952a15.445333 15.445333 0 0 1-2.602666-16.128 18.304 18.304 0 0 1 13.184-10.837333l115.2-23.722667 61.013333-118.784a10.922667 10.922667 0 0 1 9.813333-5.973333 11.221333 11.221333 0 0 1 9.856 6.144l60.970667 118.613333 114.474667 23.594667c6.058667 1.28 11.093333 5.418667 13.482666 11.136a15.914667 15.914667 0 0 1-2.730666 16.554666l-81.450667 93.312z m-301.653334-281.216a442.026667 442.026667 0 0 1 52.906667 29.525333c1.109333 0.725333 4.48 3.242667 10.069333 7.637334a20.992 20.992 0 0 1-7.594666 36.864l-174.506667 45.781333a20.992 20.992 0 0 0-10.709333 33.877333l116.736 137.642667c12.970667 15.317333 17.877333 35.882667 13.226666 55.424l-10.666666 44.373333a42.026667 42.026667 0 0 1-40.789334 32.256c-103.68 0.085333-156.714667 0.042667-159.018666 0H45.44c-24.874667 0-45.013333-20.778667-45.013333-46.378666l-0.426667-4.266667c0-6.229333 0-11.392 0.426667-18.176 13.781333-98.432 60.16-186.154667 124.117333-254.464 7.765333-8.277333 15.786667-16 24.021333-23.594667 2.176-2.005333 4.266667-4.096 6.528-6.101333 7.168-6.357333 14.592-12.330667 22.101334-18.218667 3.712-2.901333 7.338667-5.802667 11.093333-8.533333a446.634667 446.634667 0 0 1 35.84-23.68 455.765333 455.765333 0 0 1 38.016-20.181333l9.472-4.224c-83.413333-58.453333-138.24-157.013333-138.24-268.672C133.418667 145.493333 274.858667 0 449.28 0c174.506667 0 315.904 145.493333 315.904 325.034667a327.253333 327.253333 0 0 1-138.154667 268.629333c3.328 1.493333 6.741333 2.944 10.026667 4.48z" p-id="13885"></path><path d="M938.666667 879.36l14.336 123.392a19.370667 19.370667 0 0 1-6.656 16.938667 15.488 15.488 0 0 1-17.066667 2.048l-105.301333-53.034667-106.496 53.632a15.530667 15.530667 0 0 1-16.256-1.408 16.64 16.64 0 0 1-6.570667-15.274667l14.72-126.293333-81.962667-93.952a15.445333 15.445333 0 0 1-2.602666-16.128 18.304 18.304 0 0 1 13.184-10.837333l115.2-23.722667 61.013333-118.784a10.922667 10.922667 0 0 1 9.813333-5.973333 11.221333 11.221333 0 0 1 9.856 6.144l60.970667 118.613333 114.474667 23.594667c6.058667 1.28 11.093333 5.418667 13.482666 11.136a15.914667 15.914667 0 0 1-2.730666 16.554666l-81.450667 93.312z m-301.653334-281.216a442.026667 442.026667 0 0 1 52.906667 29.525333c1.109333 0.725333 4.48 3.242667 10.069333 7.637334a20.992 20.992 0 0 1-7.594666 36.864l-174.506667 45.781333a20.992 20.992 0 0 0-10.709333 33.877333l116.736 137.642667c12.970667 15.317333 17.877333 35.882667 13.226666 55.424l-10.666666 44.373333a42.026667 42.026667 0 0 1-40.789334 32.256c-103.68 0.085333-156.714667 0.042667-159.018666 0H45.44c-24.874667 0-45.013333-20.778667-45.013333-46.378666l-0.426667-4.266667c0-6.229333 0-11.392 0.426667-18.176 13.781333-98.432 60.16-186.154667 124.117333-254.464 7.765333-8.277333 15.786667-16 24.021333-23.594667 2.176-2.005333 4.266667-4.096 6.528-6.101333 7.168-6.357333 14.592-12.330667 22.101334-18.218667 3.712-2.901333 7.338667-5.802667 11.093333-8.533333a446.634667 446.634667 0 0 1 35.84-23.68 455.765333 455.765333 0 0 1 38.016-20.181333l9.472-4.224c-83.413333-58.453333-138.24-157.013333-138.24-268.672C133.418667 145.493333 274.858667 0 449.28 0c174.506667 0 315.904 145.493333 315.904 325.034667a327.253333 327.253333 0 0 1-138.154667 268.629333c3.328 1.493333 6.741333 2.944 10.026667 4.48z" p-id="13886"></path></svg>