<?xml version="1.0" standalone="no"?><!DOCTYPE svg PUBLIC "-//W3C//DTD SVG 1.1//EN" "http://www.w3.org/Graphics/SVG/1.1/DTD/svg11.dtd"><svg t="1552187638279" class="icon" style="" viewBox="0 0 1363 1024" version="1.1" xmlns="http://www.w3.org/2000/svg" p-id="2123" xmlns:xlink="http://www.w3.org/1999/xlink" width="170.375" height="128"><defs><style type="text/css"></style></defs><path d="M811.954214 623.350676c87.37565-49.015609 141.719043-141.719043 140.653486-242.94693 0-152.37461-118.276795-275.979188-263.192507-275.979188S426.222685 228.029136 426.222685 380.403746c0 101.227888 53.277836 188.603538 131.063475 236.55359C405.977107 676.628512 297.290323 838.593132 297.290323 990.967742h60.736732c0-190.734651 142.784599-334.584807 319.667014-334.584808 175.816857 0 319.667014 143.850156 319.667013 334.584808h60.736733c-1.065557-147.046826-103.359001-304.74922-246.143601-367.617066zM486.959417 380.403746c0-117.211238 90.57232-212.045786 202.455776-212.045786s202.455775 94.834547 202.455775 212.045786c0 117.211238-90.57232 212.045786-202.455775 212.045786s-202.455775-94.834547-202.455776-212.045786zM297.290323 168.35796H234.422477V41.556712h126.801248v62.867846H298.355879v63.933402z m823.675338-126.801248v126.801248h-62.867846v-63.933402h-62.867846V41.556712h125.735692zM361.223725 674.497399H234.422477V547.69615h62.867846v62.867846h62.867846v63.933403z m695.808533-126.801249h62.867846v126.801249H994.164412v-62.867846h62.867846v-63.933403z" fill="" p-id="2124"></path></svg>