<?xml version="1.0" standalone="no"?><!DOCTYPE svg PUBLIC "-//W3C//DTD SVG 1.1//EN" "http://www.w3.org/Graphics/SVG/1.1/DTD/svg11.dtd"><svg t="1552146982393" class="icon" style="" viewBox="0 0 1024 1024" version="1.1" xmlns="http://www.w3.org/2000/svg" p-id="10663" xmlns:xlink="http://www.w3.org/1999/xlink" width="128" height="128"><defs><style type="text/css"></style></defs><path d="M512 897.422222c-4.266667 0-8.533333-1.422222-14.222222-2.844444-314.311111-110.933333-305.777778-416.711111-305.777778-419.555556V264.533333c0-21.333333 17.066667-39.822222 38.4-41.244444 147.911111-7.111111 254.577778-71.111111 258.844444-73.955556 12.8-8.533333 29.866667-8.533333 42.666667 0 1.422222 0 110.933333 66.844444 258.844445 73.955556 21.333333 1.422222 38.4 18.488889 38.4 41.244444v211.911111c0 12.8 1.422222 310.044444-305.777778 418.133334-2.844444 2.844444-7.111111 2.844444-11.377778 2.844444z m0-738.133333c-4.266667 0-9.955556 1.422222-14.222222 4.266667-4.266667 2.844444-115.2 68.266667-265.955556 75.377777-14.222222 0-25.6 12.8-25.6 27.022223v210.488888c0 2.844444-8.533333 298.666667 295.822222 405.333334 5.688889 1.422222 11.377778 1.422222 17.066667 0 297.244444-105.244444 295.822222-392.533333 295.822222-403.911111v-213.333334c0-14.222222-11.377778-25.6-25.6-27.022222-149.333333-5.688889-258.844444-71.111111-263.111111-73.955555-4.266667-2.844444-9.955556-4.266667-14.222222-4.266667z" fill="#555555" p-id="10664"></path><path d="M560.355556 462.222222h24.177777v-27.022222h5.688889c7.111111 0 11.377778-5.688889 11.377778-12.8-5.688889-44.088889-44.088889-76.8-88.177778-76.8s-82.488889 34.133333-88.177778 76.8c-1.422222 7.111111 4.266667 12.8 11.377778 12.8h5.688889v27.022222h24.177778c0 49.777778-35.555556 89.6-79.644445 89.6v41.244445h256v-41.244445c-46.933333 0-82.488889-39.822222-82.488888-89.6zM391.111111 614.4h241.777778v31.288889h-241.777778z" fill="#416FD6" p-id="10665"></path></svg>