<?xml version="1.0" standalone="no"?><!DOCTYPE svg PUBLIC "-//W3C//DTD SVG 1.1//EN" "http://www.w3.org/Graphics/SVG/1.1/DTD/svg11.dtd"><svg t="1552187879490" class="icon" style="" viewBox="0 0 1024 1024" version="1.1" xmlns="http://www.w3.org/2000/svg" p-id="6803" xmlns:xlink="http://www.w3.org/1999/xlink" width="128" height="128"><defs><style type="text/css"></style></defs><path d="M512 897.422c-4.267 0-8.533-1.422-14.222-2.844C183.467 783.644 192 477.867 192 475.022V264.533c0-21.333 17.067-39.822 38.4-41.244 147.911-7.111 254.578-71.111 258.844-73.956 12.8-8.533 29.867-8.533 42.667 0 1.422 0 110.933 66.845 258.845 73.956 21.333 1.422 38.4 18.489 38.4 41.244v211.911c0 12.8 1.422 310.045-305.778 418.134-2.845 2.844-7.111 2.844-11.378 2.844z m0-738.133c-4.267 0-9.956 1.422-14.222 4.267-4.267 2.844-115.2 68.266-265.956 75.377-14.222 0-25.6 12.8-25.6 27.023v210.488c0 2.845-8.533 298.667 295.822 405.334 5.69 1.422 11.378 1.422 17.067 0 297.245-105.245 295.822-392.534 295.822-403.911V264.533c0-14.222-11.377-25.6-25.6-27.022C640 231.822 530.49 166.4 526.223 163.556c-4.267-2.845-9.956-4.267-14.223-4.267z" fill="#515151" p-id="6804"></path><path d="M560.356 462.222h24.177V435.2h5.69c7.11 0 11.377-5.689 11.377-12.8-5.689-44.089-44.089-76.8-88.178-76.8s-82.489 34.133-88.178 76.8c-1.422 7.111 4.267 12.8 11.378 12.8h5.69v27.022h24.177c0 49.778-35.556 89.6-79.645 89.6v41.245h256v-41.245c-46.933 0-82.488-39.822-82.488-89.6zM391.11 614.4H632.89v31.289H391.11z" fill="#515151" p-id="6805"></path></svg>