<?xml version="1.0" standalone="no"?><!DOCTYPE svg PUBLIC "-//W3C//DTD SVG 1.1//EN" "http://www.w3.org/Graphics/SVG/1.1/DTD/svg11.dtd"><svg t="1552128386199" class="icon" style="" viewBox="0 0 1280 1024" version="1.1" xmlns="http://www.w3.org/2000/svg" p-id="2124" xmlns:xlink="http://www.w3.org/1999/xlink" width="160" height="128"><defs><style type="text/css"></style></defs><path d="M1275.17944 483.2c-8.4-9.6-125.6-156.2-146.2-181-20.6-24.8-30.8-20.4-43.4-18.6-12.8 1.8-161 26.8-178.2 29.6-17.2 3-28 9.8-17.4 24.6 9.4 13.2 106.8 151.4 128.4 181.8l-387.4 92.8L322.57944 97.4c-12.2-18.2-14.8-24.6-42.8-23.2-28 1.2-241.8 19-257 20.4-15.2 1.2-32 8-16.8 44s258 559.2 264.8 574.4c6.8 15.2 24.4 40 65.6 30 42.2-10.2 188.6-48.4 268.6-69.4 42.2 76.6 128.4 231.8 144.4 254 21.2 29.8 36 24.8 68.6 14.8 25.6-7.8 399.2-142.2 416-149 16.8-7 27.2-11.8 15.8-28.8-8.4-12.4-107-144.4-158.6-213.6 35.4-9.4 161.2-42.8 174.6-46.6 15.8-4 18-11.6 9.4-21.2z m-704.4 144c-4.6 1-221.6 53-233.2 55.6-11.6 2.6-11.6 1.4-13-2.6-1.4-4-258-533.4-261.6-540-3.6-6.6-3.4-11.8 0-11.8s205-18 212-18.4c7.2-0.4 6.4 1.2 9 5.6 0 0 284.4 490.8 289.2 499.4 5.2 8.6 2.2 11.2-2.4 12.2z m612 114.8c3.4 5.4 7 9-4 12.8-10.8 4-367.4 124.2-374.2 127.2-7 3-12.4 4-21.2-9s-124.8-213.6-124.8-213.6L1036.17944 561.2c9.4-3 12.4-5 18.4 4.4 5.8 9.6 124.8 171 128.2 176.4z m24.2-268.2c-8.4 1.8-147.2 36.2-147.2 36.2l-113.4-155.6c-3.2-4.6-5.8-9 2.2-10s136.8-24.4 142.6-25.6c5.8-1.4 10.8-3 18 6.8 7.2 9.8 105.2 134 109 138.8 3.6 4.6-2.8 7.4-11.2 9.4z" fill="" p-id="2125"></path></svg>