<svg t="1572708757354" class="icon" viewBox="0 0 1024 1024" version="1.1" xmlns="http://www.w3.org/2000/svg" p-id="7555" width="32" height="32"><path d="M921.873067 481.902933c-6.1184 1.463467-106.432 28.471467-106.432 28.471467l-82.0352-122.120533c-2.295467-3.5328-4.224-7.0656 1.531733-7.889067 5.738667-0.836267 98.965333-19.101867 103.176533-20.151467 4.219733-1.045333 7.837867-2.286933 13.021867 5.405867 5.162667 7.68 76.100267 105.070933 78.779733 108.8256 2.679467 3.741867-1.902933 6.016-8.029866 7.458133m-17.501867 210.4576c2.5088 4.279467 5.0176 6.997333-2.858667 10.0992-7.8592 3.114667-265.565867 97.480533-270.5792 99.797334-5.009067 2.3296-8.925867 3.114667-15.389866-6.984534-6.442667-10.077867-90.282667-167.5264-90.282667-167.5264l273.1904-77.12c8.008533-2.747733 9.890133-1.728 13.239467 3.5072 4.586667 7.168 90.210133 133.986133 92.6976 138.24m-442.453334-89.9712c-3.328 0.861867-160.2816 41.527467-168.64 43.605334-8.379733 2.069333-8.379733 1.0496-9.3312-2.090667-0.968533-3.101867-186.5728-418.359467-189.154133-423.556267-2.581333-5.179733-2.449067-9.288533 0-9.288533 2.432 0 148.1984-14.135467 153.361067-14.434133 5.149867-0.298667 4.608 0.874667 6.510933 4.407466l209.173333 391.7568c3.584 6.741333 5.282133 7.722667-1.928533 9.591467m403.575467-255.018667c-14.933333-19.541333-22.190933-16.004267-31.394134-14.549333-9.1904 1.4336-116.381867 20.970667-128.827733 23.249067-12.445867 2.286933-20.296533 7.6928-12.637867 19.328 6.813867 10.333867 77.282133 118.715733 92.8 142.592l-280.157866 72.814933-222.8736-404.177067c-8.853333-14.2592-10.696533-19.259733-30.8736-18.261333-20.202667 0.981333-174.805333 14.912-185.813334 15.918933-11.012267 0.994133-23.108267 6.3104-12.100266 34.517334 11.025067 28.2112 186.5984 438.698667 191.492266 450.645333 4.898133 11.959467 17.608533 31.338667 47.402667 23.581867 30.532267-7.982933 136.3968-37.947733 194.218667-54.365867 30.557867 60.032 92.885333 181.841067 104.413866 199.2832 15.389867 23.291733 25.984 19.456 49.604267 11.682133 18.453333-6.058667 288.64-111.483733 300.808533-116.906666 12.181333-5.431467 19.6864-9.3184 11.460267-22.506667-6.058667-9.728-77.329067-113.314133-114.670933-167.509333 25.565867-7.394133 116.501333-33.655467 126.186666-36.509867 11.285333-3.323733 12.829867-9.344 6.702934-16.810667-6.126933-7.488-90.850133-122.538667-105.770667-142.062933z" fill="#FF5722" p-id="7556"></path></svg>
