<?xml version="1.0" standalone="no"?><!DOCTYPE svg PUBLIC "-//W3C//DTD SVG 1.1//EN" "http://www.w3.org/Graphics/SVG/1.1/DTD/svg11.dtd"><svg t="1552146279824" class="icon" style="" viewBox="0 0 1024 1024" version="1.1" xmlns="http://www.w3.org/2000/svg" p-id="2493" xmlns:xlink="http://www.w3.org/1999/xlink" width="128" height="128"><defs><style type="text/css"></style></defs><path d="M451.84 326.826667C451.84 326.826667 477.44 315.306667 493.653333 333.653333 509.866667 352.426667 551.253333 424.106667 551.253333 495.786667 551.253333 567.466667 533.333333 643.84 514.133333 669.013333 495.786667 694.613333 477.44 694.613333 463.36 685.226667 449.706667 676.266667 234.666667 512 223.146667 507.306667 211.2 502.613333 206.933333 514.133333 218.453333 576 229.973333 640 211.2 657.493333 194.986667 660.053333 179.2 661.333333 130.56 648.533333 128 518.826667 125.866667 389.546667 160.426667 368.64 176.64 368.64 206.933333 368.64 438.186667 576 453.973333 574.293333 468.053333 572.16 474.88 484.266667 448 414.72 417.28 339.626667 451.84 326.826667 451.84 326.826667M823.466667 197.546667C901.12 351.573333 896 497.493333 896 512 896 526.506667 901.12 672.426667 823.466667 826.453333 823.466667 826.453333 803.413333 849.92 773.12 835.84 743.253333 821.76 753.493333 785.066667 753.493333 785.066667 753.493333 785.066667 816.64 663.466667 814.933333 514.133333L814.933333 512C816.64 362.666667 753.493333 238.933333 753.493333 238.933333 753.493333 238.933333 743.253333 202.24 773.12 188.16 803.413333 174.08 823.466667 197.546667 823.466667 197.546667M672.853333 266.666667C736.426667 382.293333 732.16 497.493333 731.306667 512 732.16 526.506667 736.426667 636.586667 672.853333 761.6 672.853333 761.6 652.8 785.066667 622.506667 770.986667 592.64 756.906667 602.88 720.213333 602.88 720.213333 602.88 720.213333 643.84 661.333333 650.24 514.133333L650.24 512C645.973333 363.946667 602.88 308.48 602.88 308.48 602.88 308.48 592.64 271.36 622.506667 257.706667 652.8 243.626667 672.853333 266.666667 672.853333 266.666667Z" p-id="2494"></path></svg>