<?xml version="1.0" standalone="no"?><!DOCTYPE svg PUBLIC "-//W3C//DTD SVG 1.1//EN" "http://www.w3.org/Graphics/SVG/1.1/DTD/svg11.dtd"><svg t="1552146745049" class="icon" style="" viewBox="0 0 1024 1024" version="1.1" xmlns="http://www.w3.org/2000/svg" p-id="7933" xmlns:xlink="http://www.w3.org/1999/xlink" width="128" height="128"><defs><style type="text/css"></style></defs><path d="M126.67 959.58l1.62-895.159 733.743 1.597-1.689 446.325c-4.176 4.335-12.002 11.5-19.578 11.5-6.891 0-15.311-7.53-20.217-13.189V106.543H168.815v812.512h373.238c6.731 5.613 15.63 17.707 16.817 21.86-0.89 0.958-15.539 16.794-17.159 18.665H126.67z m656.389-109.664l-9.88 8.717c-36.03 31.717-82.214 49.196-130.087 49.196-74.935 0-144.576-43.72-177.389-111.307l-3.833-7.895H267.983v-47.964h179.831l-1.164-15.106c-0.388-4.883-0.639-9.857-0.639-14.832 0-22.179 3.719-44.039 11.067-64.941l6.526-18.665H267.983v-48.01h228.479l4.13-4.335c37.65-39.43 88.261-61.153 142.5-61.153 108.683 0 197.127 88.443 197.127 197.104a196.222 196.222 0 0 1-29.55 103.595l-5.864 9.447 109.368 109.391-23.936 23.959-107.178-107.201zM643.092 542.828c-92.574 0-167.897 75.3-167.897 167.897s75.323 167.897 167.897 167.897c92.596 0 167.919-75.3 167.919-167.897s-75.322-167.897-167.919-167.897z m-270.236-51.615V253.675H268.348v-47.964H525.35v47.964H420.843v237.538h-47.987z m220.949-25.648v-47.964h118.723v47.964H593.805z m0-141.518v-49.47h118.723v49.47H593.805z" fill="#040000" p-id="7934"></path></svg>