<?xml version="1.0" standalone="no"?><!DOCTYPE svg PUBLIC "-//W3C//DTD SVG 1.1//EN" "http://www.w3.org/Graphics/SVG/1.1/DTD/svg11.dtd"><svg t="1552187709821" class="icon" style="" viewBox="0 0 1024 1024" version="1.1" xmlns="http://www.w3.org/2000/svg" p-id="2864" xmlns:xlink="http://www.w3.org/1999/xlink" width="128" height="128"><defs><style type="text/css"></style></defs><path d="M916.27008 159.80544l-214.6816 0 0 43.17696 200.9856 0 0 206.00832 44.3648 0L946.93888 190.95552C946.93888 173.73696 933.22752 159.80544 916.27008 159.80544z" p-id="2865"></path><path d="M139.24352 202.9824l197.76512 0 0-43.17696L122.32192 159.80544c-16.9472 0-30.67392 13.9264-30.67392 31.14496L91.648 408.9856l47.59552 0L139.24352 202.9824z" p-id="2866"></path><path d="M139.24352 834.63168 139.24352 630.1696 91.648 630.1696l0 218.03008c0 17.2288 13.72672 31.16032 30.67392 31.16032l214.67136 0 0-44.72832L139.24352 834.63168z" p-id="2867"></path><path d="M902.57408 834.63168l-200.9856 0 0 44.72832 214.6816 0c16.96256 0 30.6688-13.93152 30.6688-31.16032L946.93888 630.1696l-44.3648 0L902.57408 834.63168 902.57408 834.63168z" p-id="2868"></path><path d="M202.59328 506.8288c0-36.39808 10.624-66.02752 31.87712-88.87296 21.248-22.85056 49.32608-34.27328 84.224-34.27328 33.19808 0 59.92448 11.04896 80.17408 33.152s30.37696 50.49856 30.37696 85.20192c0 36.20352-10.52672 65.57184-31.57504 88.12032-21.05344 22.54848-48.62464 33.82784-82.72384 33.82784-33.30048 0-60.35456-10.9312-81.152-32.77824C212.99712 569.34912 202.59328 541.23008 202.59328 506.8288zM254.6432 504.12544c0 22.6048 5.44768 41.07264 16.34816 55.424 10.89536 14.35136 25.85088 21.5296 44.8512 21.5296 19.39968 0 34.49856-6.88128 45.30176-20.62848S377.344 528.2304 377.344 505.02656c0-24.20224-5.248-43.32544-15.74912-57.37472s-25.29792-21.07392-44.40064-21.07392c-19.4048 0-34.67264 7.19872-45.824 21.60128C260.21888 462.57664 254.6432 481.2288 254.6432 504.12544z" p-id="2869"></path><path d="M634.29632 611.52768c-16.90112 8.29952-38.94784 12.45184-66.1504 12.45184-35.00544 0-62.77632-10.48064-83.32288-31.43168s-30.82752-48.8704-30.82752-83.77344c0-36.70016 11.47392-66.72384 34.42688-90.07616s52.57728-35.02592 88.87296-35.02592c22.70208 0 41.7024 2.94912 57.00096 8.85248l0 47.85152c-15.69792-9.20064-33.50528-13.7984-53.4016-13.7984-22.7072 0-40.85248 7.24992-54.4512 21.74976-13.59872 14.49984-20.39808 33.44896-20.39808 56.85248 0 22.80448 6.4512 41.15456 19.34848 55.05024s30.35136 20.84864 52.352 20.84864c20.70016 0 39.54688-5.00224 56.5504-15.0016L634.29632 611.52768z" p-id="2870"></path><path d="M867.09248 619.9296l-57.00096 0-36.44928-60.45184c-7.5008-12.49792-13.64992-20.55168-18.45248-24.15104s-9.90208-5.4016-15.29856-5.4016l-15.0016 0 0 89.99936-49.50016 0L675.38944 387.57888l81.44896 0c55.296 0 82.94912 21.00224 82.94912 63.0016 0 15.80032-4.62336 29.34784-13.8752 40.64768s-21.97504 19.2512-38.17472 23.85408l0 0.59904c10.7008 3.59936 22.54848 15.40096 35.54816 35.39968L867.09248 619.9296zM724.89472 425.22624l0 66.89792 24.29952 0c11.60192 0 20.92544-3.37408 27.97568-10.12736s10.5728-15.17568 10.5728-25.27744c0-21.00224-12.54912-31.49824-37.65248-31.49824L724.89472 425.22112z" p-id="2871"></path></svg>