<?xml version="1.0" standalone="no"?><!DOCTYPE svg PUBLIC "-//W3C//DTD SVG 1.1//EN" "http://www.w3.org/Graphics/SVG/1.1/DTD/svg11.dtd"><svg t="1552146825792" class="icon" style="" viewBox="0 0 1024 1024" version="1.1" xmlns="http://www.w3.org/2000/svg" p-id="8409" xmlns:xlink="http://www.w3.org/1999/xlink" width="128" height="128"><defs><style type="text/css"></style></defs><path d="M783.2 613h-91.7c-6.5 0-11.7 5.2-11.7 11.4 0 6.4 5.3 11.4 11.7 11.4h34.2V714c0 6.4 5.3 11.4 11.7 11.4 6.5 0 11.7-5.2 11.7-11.4v-78.2h34.2c6.5 0 11.7-5.2 11.7-11.4-0.1-6.4-5.5-11.4-11.8-11.4zM613.8 578.9c0-21.7 0.1-30.3 0.1-30.3h70.4v-20.2h-90.6v90.8h20.1v-40.3z m0 176.4V710h-20.1v90.6h90.6v-18.1h-70.5v-27.2z m226.9-226.8h-50.3v20.2h70.4s-0.2 8.3 0.1 30.3v40.4H881v-90.8c-0.1-0.1-6.7-0.1-40.3-0.1z m20.1 254.2s-5.9-0.1-30.6-0.1h-39.9v18h90.6V710h-20.1V782.7z" fill="" p-id="8410"></path><path d="M850.5 484.3V271.5H155.4v494h384.7l0.6 30.4H125V241.2h756v242.9l-30.5 0.2z m-344.3 101c-26.8-26.8-90.8-90.7-90.8-90.7L214.3 695.4c-5.9 5.9-15.6 5.9-21.5 0s-5.9-15.5 0-21.5l211.7-211.3c3-3 7-4.5 10.9-4.4 4-0.1 7.9 1.4 11 4.4l105.4 105.3-21 22s-3-3.1-4.6-4.6z m79.1-278.8c35.1 0 63.7 28.5 63.7 63.5s-28.6 63.5-63.7 63.5-63.7-28.5-63.7-63.5 28.6-63.5 63.7-63.5z m0 96.8c18.3 0 33.3-14.9 33.3-33.2 0-18.3-14.9-33.2-33.3-33.2-18.3 0-33.3 14.9-33.3 33.2 0 18.3 15 33.2 33.3 33.2z" fill="" p-id="8411"></path></svg>