<?xml version="1.0" standalone="no"?><!DOCTYPE svg PUBLIC "-//W3C//DTD SVG 1.1//EN" "http://www.w3.org/Graphics/SVG/1.1/DTD/svg11.dtd"><svg t="1552147371493" class="icon" style="" viewBox="0 0 1024 1024" version="1.1" xmlns="http://www.w3.org/2000/svg" p-id="14858" xmlns:xlink="http://www.w3.org/1999/xlink" width="128" height="128"><defs><style type="text/css"></style></defs><path d="M919.710316 429.466947c-9.643789 25.434947-43.627789 36.559158-66.442105 11.587369-71.907368-82.997895-212.825263-83.84-251.996632 41.536-29.933474 90.204632 44.645053 184.525474 176.48 172.592842 28.926316-2.283789 49.372632 23.626105 40.284632 52.16l-65.574737 179.211789c-16.623158 44.089263-59.329684 67.856842-109.830737 51.334737L140.318316 754.790737c-45.229474-15.969684-70.012632-65.251368-55.173053-109.530948l186.044632-508.463157C291.250526 91.435789 325.872842 70.923789 381.018947 85.458526l502.248421 183.077053c45.332211 16.062316 70.064842 65.303579 55.238737 109.554526l-18.795789 51.376842zM823.843368 518.905263c0-67.744-73.840842-110.315789-132.59621-76.442947s-58.753684 119.013053 0 152.885895 132.596211-8.697263 132.59621-76.442948z" fill="#C792EA" p-id="14859"></path></svg>