<?xml version="1.0" standalone="no"?><!DOCTYPE svg PUBLIC "-//W3C//DTD SVG 1.1//EN" "http://www.w3.org/Graphics/SVG/1.1/DTD/svg11.dtd"><svg t="1554089201926" class="icon" style="" viewBox="0 0 1024 1024" version="1.1" xmlns="http://www.w3.org/2000/svg" p-id="2021" xmlns:xlink="http://www.w3.org/1999/xlink" width="32" height="32"><defs><style type="text/css"></style></defs><path d="M967.66976 651.42272a8.99584 8.99584 0 0 1-4.7616 4.51072l-447.63648 177.90464c-1.02912 0.4608-2.176 0.66048-3.328 0.66048a9.5232 9.5232 0 0 1-3.36384-0.66048L61.0304 655.93344a9.04704 9.04704 0 0 1-4.77184-4.51072 8.69376 8.69376 0 0 0-0.90112 3.8144c0.05632 3.6608 0.05632 123.12064 0 126.72512a8.8576 8.8576 0 0 0 5.67808 8.25856l447.62624 177.90464c1.02912 0.37376 2.19136 0.64 3.34336 0.64s2.31936-0.19968 3.33824-0.64l447.63136-177.90464a9.15456 9.15456 0 0 0 5.72928-8.25856c-0.0512-3.66592-0.0512-123.13088 0-126.72512a10.50112 10.50112 0 0 0-1.03424-3.8144z" fill="#8a8a8a" p-id="2022"></path><path d="M967.66976 443.24864a9.05216 9.05216 0 0 1-4.7616 4.51072l-447.63648 177.89952a8.3968 8.3968 0 0 1-3.328 0.64512c-1.16736 0-2.33984-0.27136-3.36384-0.64512L61.0304 447.6928a9.088 9.088 0 0 1-4.77184-4.51072 9.14432 9.14432 0 0 0-0.95744 3.80416c0.0512 3.68128 0.0512 123.136 0 126.74048 0.0512 3.68128 2.29888 6.94784 5.72928 8.30976l447.62624 177.90976c1.02912 0.384 2.19136 0.63488 3.34336 0.63488s2.31936-0.19456 3.33824-0.63488l447.63136-177.90976a9.11872 9.11872 0 0 0 5.72928-8.2432c-0.0512-3.68128-0.0512-123.13088 0-126.73536a10.15808 10.15808 0 0 0-1.02912-3.80928z" fill="#8a8a8a" p-id="2023"></path><path d="M968.64256 242.08384a8.99072 8.99072 0 0 0-5.7344-8.2432L515.2768 55.86432a9.51808 9.51808 0 0 0-3.328-0.63488c-1.16736 0-2.33984 0.19968-3.36384 0.63488L61.0304 233.76896a9.09312 9.09312 0 0 0-5.7344 8.31488c0.0512 3.68128 0.0512 123.136 0 126.74048a9.1136 9.1136 0 0 0 5.7344 8.31488l447.62624 177.90976c1.024 0.384 2.19136 0.63488 3.33824 0.63488s2.31936-0.18944 3.33824-0.63488l447.62624-177.90976a9.12896 9.12896 0 0 0 5.7344-8.2432c-0.17408-3.67616-0.17408-123.13088-0.0512-126.81216zM358.97344 164.18816l85.11488-16.37888-18.11968-36.33664a1.8432 1.8432 0 0 1 0.28672-2.11968 1.96608 1.96608 0 0 1 2.05312-0.44544L500.736 136.8576l85.49376-16.4864a1.93536 1.93536 0 0 1 2.048 1.024 1.9456 1.9456 0 0 1-0.4352 2.31936l-38.08256 32.09216 71.50592 27.65312a1.8944 1.8944 0 0 1 1.17248 2.176 1.93536 1.93536 0 0 1-2.00192 1.4336l-99.10272-7.28576-41.16992 34.72384a1.73056 1.73056 0 0 1-1.23904 0.46592c-0.12288 0-0.24576 0-0.38912-0.07168a1.7408 1.7408 0 0 1-1.27488-0.9728l-19.456-38.77888-98.57536-7.22432a1.87392 1.87392 0 0 1-1.74592-1.80736c-0.04608-0.9728 0.58368-1.80224 1.48992-1.93024zM287.51872 291.49696c-28.8 0-56.1152-4.68992-76.93824-13.12768-20.87424-8.576-32.35328-19.92192-32.2816-31.96928 0.07168-11.53536 10.75712-22.09792 30.16192-29.70112 18.36544-7.2192 42.84928-11.2128 69.0688-11.2128 28.28288 0 55.28064 4.51072 75.90912 12.75904 21.44256 8.50944 33.23904 19.968 33.29536 32.21504 0.06656 11.36128-10.22976 21.79584-28.91264 29.38368-18.50368 7.53152-43.44832 11.65312-70.30272 11.65312z m290.34496 16.4352l-45.96224 87.50592a1.83296 1.83296 0 0 1-1.664 1.04448c-0.26624 0-0.45568-0.07168-0.70144-0.13824L367.01696 330.04544a1.9968 1.9968 0 0 1-1.16224-2.0736 1.9968 1.9968 0 0 1 1.69984-1.60256l208.49152-21.14048a1.95072 1.95072 0 0 1 1.75104 0.85504c0.38912 0.50176 0.38912 1.28512 0.06656 1.84832z m267.6992-58.82368l-112.10752 46.06976c-0.26624 0.06656-0.44544 0.11776-0.70144 0.11776-0.26624 0-0.512-0.0512-0.71168-0.11776l-127.5648-52.5056c-0.66048-0.3328-1.17248-1.02912-1.1008-1.80224 0-0.78336 0.44032-1.48992 1.152-1.75104l112.64-44.70272a1.78176 1.78176 0 0 1 1.41312 0l126.99136 51.16416a1.82272 1.82272 0 0 1 1.16736 1.73568 1.87392 1.87392 0 0 1-1.1776 1.792z" fill="#8a8a8a" p-id="2024"></path></svg>