<?xml version="1.0" standalone="no"?><!DOCTYPE svg PUBLIC "-//W3C//DTD SVG 1.1//EN" "http://www.w3.org/Graphics/SVG/1.1/DTD/svg11.dtd"><svg t="1556616058638" class="icon" style="" viewBox="0 0 1024 1024" version="1.1" xmlns="http://www.w3.org/2000/svg" p-id="1694" xmlns:xlink="http://www.w3.org/1999/xlink" width="32" height="32"><defs><style type="text/css"></style></defs><path d="M127.759 731.604V45.496h351.307c48.72 0 92.723 4.111 130.781 12.217l23.62 5.031-16.605 17.53c-108.867 114.953-313.887 346.72-463.816 607.369l-25.287 43.961zM154.85 72.587v558.684C295.385 398.78 473.604 193.801 580.14 79.777c-30.397-4.777-64.276-7.19-101.074-7.19H154.85z" p-id="1695"></path><path d="M120.259 759.685V37.996h358.807c49.244 0 93.77 4.166 132.343 12.381l36.698 7.817-25.801 27.237c-108.635 114.707-313.21 345.961-462.76 605.951l-39.287 68.303z m15-706.689v650.527l11.285-19.619c150.322-261.333 355.78-493.597 464.872-608.787l7.41-7.823-10.542-2.246c-37.548-7.997-81.022-12.052-129.218-12.052H135.259z m12.091 605.18V65.087h331.716c37.096 0 71.495 2.45 102.238 7.281l13.972 2.196-9.655 10.333c-97.048 103.87-281.226 313.476-424.352 550.253l-13.919 23.026z m15-578.089V604.65c59.742-96.426 130.983-196.637 212.032-298.229 60.115-75.351 124.15-149.725 190.486-221.246-26.288-3.378-55.078-5.088-85.802-5.088H162.35z" p-id="1696"></path><path d="M954.587 1003.986H127.759v-24.789l1.229-2.685c72.219-157.786 275.552-556.421 602.936-849.459l9.665-8.651 9.061 9.28c39.769 40.734 59.935 97.76 59.935 169.494 0 65.136-18.308 121.444-54.414 167.359-33.355 42.4-82.561 76.476-146.402 101.412l344.818 438.039z m-795.945-27.09h740.14L577.427 568.667v-19.692l8.983-3.213c65.923-23.578 115.874-56.542 148.462-97.974 32.262-41.024 48.618-91.698 48.618-150.611 0-58.778-14.631-106.1-43.521-140.9-310.502 282.197-506.53 659.316-581.327 820.619z" p-id="1697"></path><path d="M970.036 1011.486H120.259v-33.924l1.909-4.171c72.414-158.21 276.299-557.93 604.754-851.926l15.016-13.44 14.078 14.418c41.186 42.186 62.068 100.974 62.068 174.733 0 66.858-18.848 124.726-56.019 171.995-32.512 41.328-79.652 74.94-140.215 100l348.186 442.315z m-834.777-15h803.878L597.619 562.641l9.42-3.68c62.555-24.433 110.746-57.762 143.236-99.063 35.041-44.561 52.809-99.309 52.809-162.722 0-69.707-19.447-124.969-57.801-164.254l-4.044-4.141-4.313 3.861C410.576 424.753 207.829 822.28 135.808 979.634l-0.548 1.198v15.654z m778.972-12.09H146.897l4.94-10.655c39.601-85.399 106.928-218.203 202.787-365.902C471.681 427.48 599.632 273.686 734.926 150.726l5.805-5.275 5.01 6.035c30.025 36.169 45.25 85.186 45.25 145.691 0 60.638-16.897 112.871-50.223 155.248-33.476 42.56-84.559 76.339-151.832 100.399l-4.009 1.435v11.812l329.304 418.325z m-743.812-15h712.914L569.927 571.265v-27.573l13.958-4.991c64.573-23.096 113.39-55.243 145.093-95.549 31.195-39.668 47.013-88.782 47.013-145.975 0-53.476-12.414-97.136-36.919-129.925-301.763 276.754-494.874 645.037-568.653 802.144z" p-id="1698"></path></svg>