<svg t="1572708634098" class="icon" viewBox="0 0 1024 1024" version="1.1" xmlns="http://www.w3.org/2000/svg" p-id="3866" width="32" height="32"><path d="M145.92 0a15.776 15.776 0 0 0-15.744 15.776v832.672c24.608-63.488 66.432-154.336 133.888-278.624 243.2-447.136 275.072-492.256 401.76-492.256 66.56 0 133.728 30.048 177.152 83.424-60-95.904-164.384-159.2-283.68-161.024h-0.256z m542.72 108.544c-50.784 0.416-96.288 19.872-115.104 63.904-41.248 96.256 69.28 203.392 117.632 194.912 61.536-10.88-10.88-152.032-10.88-152.032 94.08 177.312 72.416 123.04-97.696 285.856S238.784 1007.776 213.44 1022.176a20.224 20.224 0 0 1-3.296 1.792l-0.128 0.064h667.168a15.904 15.904 0 0 0 14.016-23.04l0.032 0.096L716.8 655.84a15.776 15.776 0 0 1 6.048-20.768l0.064-0.032c102.816-59.68 170.88-169.248 170.88-294.752v-0.224c0-60.8-15.904-117.792-43.936-167.264-39.552-40.608-103.68-64.672-161.248-64.256z" fill="#EC4A3F" p-id="3867"></path></svg>
