<?xml version="1.0" standalone="no"?><!DOCTYPE svg PUBLIC "-//W3C//DTD SVG 1.1//EN" "http://www.w3.org/Graphics/SVG/1.1/DTD/svg11.dtd"><svg t="1552446428783" class="icon" style="" viewBox="0 0 1024 1024" version="1.1" xmlns="http://www.w3.org/2000/svg" p-id="2243" xmlns:xlink="http://www.w3.org/1999/xlink" width="128" height="128"><defs><style type="text/css"></style></defs><path d="M542.72 470.357333L313.344 314.709333c-10.581333-7.168-19.456-8.874667-26.624-5.12-7.509333 4.096-10.922667 12.288-10.922667 24.917334v366.250666c0 12.288 3.413333 20.48 10.24 23.552 7.168 3.413333 15.36 1.024 25.258667-7.168l234.154667-192.170666c9.557333-7.850667 14.336-17.408 13.653333-28.330667-0.682667-10.24-5.802667-19.114667-16.384-26.282667M92.501333 161.109333C66.218667 173.738667 44.373333 216.064 26.965333 288.768 10.922667 356.352 2.048 434.176 0.341333 522.581333c-1.706667 90.794667 4.778667 168.277333 19.456 232.106667 16.384 71.68 40.96 112.64 72.704 123.221333 22.869333 7.509333 51.541333 8.874667 86.016 3.754667-5.802667-19.114667-11.264-40.96-16.042666-65.536-16.042667-82.944-23.210667-182.954667-21.504-300.032 2.048-114.005333 11.946667-214.698667 29.354666-302.08 4.096-19.797333 8.192-37.888 12.629334-54.613333-41.301333-7.509333-71.68-7.168-90.453334 1.706666M1024 491.178667c-1.024-29.354667-36.181333-72.704-105.472-130.730667-64.512-53.930667-143.701333-108.202667-237.909333-163.157333-96.938667-56.32-184.32-98.645333-261.802667-126.976C331.776 39.253333 272.725333 32.085333 242.346667 49.152c-22.528 12.629333-42.325333 49.493333-59.050667 110.592 20.821333 4.096 44.373333 9.898667 70.656 17.749333 70.997333 21.845333 150.528 54.613333 238.933333 98.304 86.016 42.666667 158.72 84.650667 217.429334 126.293334 63.488 45.056 95.573333 78.848 96.597333 101.376 0.682667 20.48-27.648 54.272-84.992 101.717333-56.32 46.08-123.904 92.16-203.434667 138.24-86.357333 49.834667-165.888 87.04-237.909333 111.957333-38.229333 12.970667-72.021333 21.845333-101.376 25.941334 16.725333 52.565333 37.888 83.968 63.829333 93.866666 46.08 17.408 114.346667 7.850667 205.141334-29.013333 79.189333-32.085333 165.888-80.213333 260.437333-144.725333 87.04-59.392 161.450667-119.125333 222.890667-179.2 62.122667-61.098667 93.184-104.789333 92.501333-131.072z" p-id="2244"></path><path d="M242.346667 49.152c-22.528 12.629333-42.325333 49.493333-59.050667 110.592 20.48 3.754667 44.032 9.898667 70.314667 17.749333 70.997333 21.845333 150.528 54.613333 238.933333 98.304 86.016 42.666667 158.72 84.650667 217.429333 126.293334 63.488 45.056 95.573333 78.848 96.597334 101.376 0.682667 20.48-27.648 54.272-84.992 101.717333-56.32 46.08-123.904 92.16-203.434667 138.24-86.357333 49.834667-165.888 87.04-237.909333 111.957333-38.229333 12.970667-71.68 21.845333-101.376 25.941334 16.384 52.565333 37.546667 83.968 63.488 93.866666 46.08 17.408 114.346667 7.850667 205.141333-29.013333 79.189333-32.085333 165.888-80.213333 260.437333-144.725333 87.04-59.392 161.450667-119.125333 222.890667-179.2 62.805333-61.098667 93.866667-105.130667 93.184-131.072-1.024-29.354667-36.181333-72.704-105.472-130.730667-64.512-53.930667-143.701333-108.202667-237.909333-163.157333-96.938667-56.32-184.32-98.645333-261.802667-126.976C331.776 39.253333 272.725333 32.085333 242.346667 49.152zM141.312 516.096c2.048-114.005333 11.946667-214.698667 29.354667-302.08 4.096-19.797333 8.192-37.888 12.629333-54.272-41.984-7.850667-72.362667-7.509333-90.794667 1.365333C66.218667 173.738667 44.373333 216.064 26.965333 288.768 10.922667 356.352 2.048 434.176 0.341333 522.581333c-1.706667 90.794667 4.778667 168.277333 19.456 232.106667 16.384 71.68 40.96 112.64 72.704 123.221333 22.869333 7.509333 51.541333 8.874667 86.357334 3.754667-6.144-19.114667-11.264-40.96-16.042667-65.536-16.042667-82.944-23.210667-182.954667-21.504-300.032z m172.032-201.386667c-10.581333-7.168-19.456-8.874667-26.624-5.12-7.509333 4.096-10.922667 12.288-10.922667 24.917334v366.250666c0 12.288 3.413333 20.48 10.24 23.552 7.168 3.413333 15.36 1.024 25.258667-7.168l234.154667-192.170666c9.557333-7.850667 14.336-17.408 13.653333-28.330667-0.341333-10.581333-5.461333-19.456-16.042667-26.624L313.344 314.709333z" p-id="2245"></path></svg>