<?xml version="1.0" standalone="no"?><!DOCTYPE svg PUBLIC "-//W3C//DTD SVG 1.1//EN" "http://www.w3.org/Graphics/SVG/1.1/DTD/svg11.dtd"><svg t="1552147322762" class="icon" style="" viewBox="0 0 4209 1024" version="1.1" xmlns="http://www.w3.org/2000/svg" p-id="14687" xmlns:xlink="http://www.w3.org/1999/xlink" width="526.125" height="128"><defs><style type="text/css"></style></defs><path d="M524.650195 93.211964H306.26788v676.452535h-89.217165v-676.452535H0v-79.895969h524.650195v79.895969z" p-id="14688"></path><path d="M936.114434 229.035111l-249.009102 627.183355c-43.942783 111.854356-106.527958 167.781534-186.423928 167.781534-22.637191 0-41.279584-2.663199-55.927178-6.657997v-77.23277c18.642393 6.657997 35.953186 9.321196 50.600781 9.321196 43.942783 0 75.90117-26.63199 98.538361-78.564369l42.611183-102.53316L426.111834 229.035111h95.875162l146.475943 415.459037c1.331599 5.326398 5.326398 18.642393 10.652796 41.279584h2.663199c1.331599-7.989597 5.326398-21.305592 10.652796-39.947984l153.13394-416.790637h90.548764z m141.149545 462.065019h-2.663199v326.241873h-86.553966v-788.306892h86.553966v94.543563h2.663199c42.611183-71.906372 105.196359-107.859558 186.423927-107.859558 69.243173 0 123.838752 23.968791 162.455137 71.906372 38.616385 47.937581 58.590377 113.185956 58.590377 194.413524 0 90.548765-22.637191 162.455137-66.579974 217.050715s-103.864759 81.227568-179.76593 81.227568c-67.911573 2.663199-122.507152-27.963589-161.123537-89.217165z m-1.331599-217.050715v75.90117c0 45.274382 14.647594 82.559168 43.942783 113.185956 29.295189 30.626788 65.248375 46.605982 110.522756 46.605982 51.93238 0 93.211964-19.973992 123.838752-59.921977 29.295189-39.947984 43.942783-95.875163 43.942783-167.781534 0-59.921977-13.315995-107.859558-41.279584-141.149545-27.963589-34.621586-65.248375-50.60078-113.185956-50.60078-50.60078 0-90.548765 17.310793-121.175552 51.932379-31.958388 34.621586-46.605982 78.564369-46.605982 131.828349z m938.777633 46.605982h-380.837451c1.331599 59.921977 17.310793 106.527958 47.937581 139.817945s73.237971 49.269181 127.83355 49.269181c61.253576 0 117.180754-19.973992 167.781535-59.921977v81.227568c-47.937581 34.621586-110.522757 51.93238-187.755527 51.93238-75.90117 0-135.823147-23.968791-179.76593-73.237971s-65.248375-118.512354-65.248374-206.39792c0-83.890767 23.968791-153.13394 71.906372-205.06632 47.937581-53.263979 106.527958-79.895969 177.10273-79.895968s125.170351 22.637191 163.786736 69.243173c38.616385 45.274382 58.590377 109.191157 58.590377 190.418725l-1.331599 42.611184z m-89.217165-73.237972c0-50.60078-11.984395-89.217165-35.953186-117.180754-23.968791-27.963589-57.258778-41.279584-98.538362-41.279584s-75.90117 14.647594-103.864759 43.942783c-27.963589 29.295189-46.605982 67.911573-53.263979 114.517555h291.620286z m131.828348 295.615085v-59.921977c54.595579 34.621586 109.191157 51.93238 165.118336 51.93238 58.590377 0 103.864759-11.984395 134.491547-37.284786s45.274382-58.590377 45.274383-102.53316c0-38.616385-10.652796-69.243173-30.626788-93.211963-19.973992-22.637191-65.248375-54.595579-133.159948-94.543563-77.23277-45.274382-125.170351-82.559168-145.144344-111.854356-19.973992-30.626788-30.626788-65.248375-30.626788-103.86476 0-53.263979 21.305592-98.538362 62.585176-135.823147 41.279584-37.284785 97.206762-55.927178 166.449935-55.927178 45.274382 0 90.548765 7.989597 134.491547 22.637191v54.595579c-43.942783-19.973992-91.880364-30.626788-142.481144-30.626788-51.93238 0-91.880364 13.315995-122.507152 38.616385-30.626788 26.63199-45.274382 58.590377-45.274383 98.538361 0 38.616385 10.652796 69.243173 30.626789 91.880364 19.973992 22.637191 65.248375 54.595579 133.159947 93.211964 70.574772 39.947984 117.180754 75.90117 141.149545 106.527958 23.968791 30.626788 34.621586 66.579974 34.621587 107.859558 0 58.590377-19.973992 105.196359-59.921977 142.481145-39.947984 37.284785-97.206762 54.595579-170.444733 54.595578-26.63199 0-55.927178-3.994798-90.548765-11.984395-34.621586-7.989597-59.921977-14.647594-77.23277-25.30039z m848.228869 2.663199c-39.947984 23.968791-87.885566 37.284785-143.812744 37.284785-73.237971 0-133.159948-25.30039-178.43433-75.90117-45.274382-50.60078-67.911573-115.849155-67.911574-198.408323 0-85.222367 25.30039-155.797139 75.901171-210.392718 50.60078-54.595579 115.849155-82.559168 195.745123-82.559167 41.279584 0 81.227568 7.989597 119.843953 25.30039v54.595579c-38.616385-23.968791-81.227568-35.953186-126.50195-35.953186-63.916775 0-114.517555 22.637191-154.46554 67.911573-39.947984 45.274382-58.590377 105.196359-58.590377 177.102731 0 70.574772 18.642393 126.501951 54.595579 169.113134 35.953186 42.611183 83.890767 63.916775 142.481144 63.916775 54.595579 0 101.20156-14.647594 141.149545-42.611184v50.600781z m322.247074-466.059818c-15.979194-11.984395-34.621586-17.310793-57.258777-17.310793-42.611183 0-78.564369 22.637191-106.527959 66.579974-29.295189 43.942783-42.611183 106.527958-42.611183 187.755526v254.335501h-47.937582v-541.960988h47.937582v119.843953h2.663199c11.984395-41.279584 31.958388-73.237971 58.590377-95.875163s57.258778-34.621586 93.211963-34.621586c19.973992 0 38.616385 2.663199 53.26398 9.321196v51.93238h-1.3316z m77.23277-186.423927c-10.652796 0-19.973992-3.994798-27.963589-11.984396s-11.984395-17.310793-11.984395-29.295188c0-11.984395 3.994798-21.305592 11.984395-27.963589s17.310793-10.652796 27.963589-10.652796 19.973992 3.994798 29.295189 10.652796c7.989597 6.657997 11.984395 15.979194 11.984395 27.963589 0 10.652796-3.994798 21.305592-11.984395 29.295188-9.321196 7.989597-18.642393 11.984395-29.295189 11.984396z m-23.968791 676.452535v-540.629388h47.937582v540.629388h-47.937582z m214.387517-95.875162h-2.663199v344.884265h-47.937582v-789.638491h47.937582v111.854356h2.663199c19.973992-39.947984 46.605982-70.574772 82.559167-91.880364 35.953186-21.305592 75.90117-31.958388 118.512354-31.958388 69.243173 0 122.507152 23.968791 161.123537 70.574773 38.616385 47.937581 57.258778 111.854356 57.258778 193.081924 0 90.548765-22.637191 163.786736-66.579974 219.713914s-102.53316 83.890767-174.439532 83.890768c-79.895969-1.331599-139.817945-37.284785-178.43433-110.522757z m-2.663199-201.071522v67.911574c0 54.595579 17.310793 101.20156 50.60078 139.817945 34.621586 38.616385 78.564369 58.590377 134.491547 58.590377 54.595579 0 99.869961-23.968791 134.491548-70.574772 34.621586-47.937581 51.93238-109.191157 51.93238-186.423927 0-67.911573-15.979194-121.175553-47.937582-161.123537s-73.237971-59.921977-126.50195-59.921977c-62.585176 0-111.854356 21.305592-146.475943 63.916775-34.621586 42.611183-50.60078 90.548765-50.60078 147.807542z m716.40052 288.957087c-25.30039 11.984395-49.269181 17.310793-70.574773 17.310794-79.895969 0-119.843953-47.937581-119.843953-143.812744v-360.863459h-97.206762v-43.942783h97.206762V89.217165l23.968791-7.989597 23.96879-7.989597v157.128739h142.481145v43.942783h-142.481145v356.86866c0 37.284785 5.326398 63.916775 17.310794 81.227569 11.984395 17.310793 31.958388 25.30039 59.921976 25.30039 19.973992 0 41.279584-6.657997 65.248375-19.973992v43.942782z" p-id="14689"></path></svg>