<?xml version="1.0" standalone="no"?><!DOCTYPE svg PUBLIC "-//W3C//DTD SVG 1.1//EN" "http://www.w3.org/Graphics/SVG/1.1/DTD/svg11.dtd"><svg t="1552146637867" class="icon" style="" viewBox="0 0 1024 1024" version="1.1" xmlns="http://www.w3.org/2000/svg" p-id="6844" xmlns:xlink="http://www.w3.org/1999/xlink" width="128" height="128"><defs><style type="text/css"></style></defs><path d="M945.066667 238.933333c-155.733333-17.066667-290.133333-96-381.866667-213.333333C550.4 8.533333 531.2 0 512 0s-38.4 8.533333-51.2 25.6c-89.6 115.2-226.133333 196.266667-381.866667 213.333333-34.133333 4.266667-59.733333 34.133333-57.6 68.266667C59.733333 714.666667 264.533333 1024 512 1024s452.266667-309.333333 490.666667-716.8c2.133333-34.133333-23.466667-66.133333-57.6-68.266667zM512 981.333333C292.266667 981.333333 100.266667 689.066667 64 302.933333c0-10.666667 8.533333-21.333333 19.2-23.466666 162.133333-17.066667 311.466667-102.4 409.6-228.266667 6.4-6.4 14.933333-8.533333 19.2-8.533333s12.8 2.133333 19.2 8.533333c100.266667 128 249.6 211.2 409.6 228.266667 10.666667 2.133333 19.2 10.666667 19.2 23.466666C923.733333 689.066667 731.733333 981.333333 512 981.333333z" fill="#666767" p-id="6845"></path><path d="M793.6 379.733333L492.8 674.133333c-8.533333 8.533333-21.333333 8.533333-29.866667 0l-168.533333-164.266666c-8.533333-8.533333-21.333333-8.533333-29.866667 0-8.533333 8.533333-8.533333 21.333333 0 29.866666l183.466667 179.2c17.066667 17.066667 42.666667 17.066667 59.733333 0l315.733334-309.333333c8.533333-8.533333 8.533333-21.333333 0-29.866667-8.533333-8.533333-21.333333-8.533333-29.866667 0z" fill="#666767" p-id="6846"></path></svg>