<svg t="1572675580639" class="icon" viewBox="0 0 1024 1024" version="1.1" xmlns="http://www.w3.org/2000/svg" p-id="1870" width="32" height="32"><path d="M531.21266197-1.18121071v175.65862864l277.21127235 150.95663276 150.95663283-85.08464734m-894.7611343-2.74466695l430.91257079-238.78594711v175.65862864l-277.21127235 150.95663276-153.70129844-87.82931429zM45.40676962 756.34662153V270.54072908l153.70129968 87.82931433V671.26197412L45.40676962 756.34662153z m30.19132704 24.70199452l419.93390698 233.29661583v-181.14795989l-260.74327601-139.97796896L75.59809666 781.04861605z m902.99513372-24.70199452V270.54072908l-153.70129968 87.82931433V671.26197412l153.70129968 85.08464741z m-30.19132704 24.70199452l-419.93390698 233.29661583v-181.14795989l260.74327601-139.97796896 159.19063097 87.82931302z" fill="#8fd6fa" p-id="1871"></path><path d="M254.0013909 344.6467127L512 204.6687437l257.9986091 139.977969-257.9986091 148.21196716-257.9986091-148.21196716z m277.21127107 447.38056844l257.9986104-139.97796903v-274.46660671l-257.9986104 145.46730155v268.97727419z m-38.42532394 0l-257.9986104-139.97796903v-274.46660671l257.9986104 145.46730155v268.97727419z" fill="#1679c1" p-id="1872"></path></svg>
